<?xml version="1.0" standalone="no"?>
<!DOCTYPE svg PUBLIC "-//W3C//DTD SVG 20010904//EN"
 "http://www.w3.org/TR/2001/REC-SVG-20010904/DTD/svg10.dtd">
<svg version="1.0" xmlns="http://www.w3.org/2000/svg"
 width="512.000000pt" height="512.000000pt" viewBox="0 0 512.000000 512.000000"
 preserveAspectRatio="xMidYMid meet">

<g transform="translate(0.000000,512.000000) scale(0.100000,-0.100000)"
fill="#000000" stroke="none">
<path d="M2370 5114 c-19 -2 -78 -9 -130 -15 -791 -90 -1522 -586 -1924 -1305
-146 -262 -252 -588 -297 -914 -18 -125 -18 -515 0 -640 105 -762 511 -1409
1146 -1826 609 -400 1377 -517 2090 -317 929 260 1646 1043 1819 1987 156 845
-103 1682 -705 2285 -399 398 -879 639 -1449 726 -100 15 -472 28 -550 19z
m540 -169 c58 -9 166 -31 240 -49 848 -211 1531 -892 1745 -1741 55 -219 69
-342 69 -595 0 -253 -14 -376 -69 -595 -213 -846 -894 -1527 -1740 -1740 -219
-55 -342 -69 -595 -69 -255 0 -368 13 -593 69 -849 213 -1528 892 -1742 1740
-55 219 -69 342 -69 595 0 253 14 376 69 595 192 760 764 1395 1507 1669 174
64 433 121 638 140 93 8 439 -4 540 -19z"/>
<path d="M2357 4630 c-208 -22 -444 -85 -637 -170 -164 -72 -365 -197 -477
-295 -44 -39 -53 -52 -53 -80 0 -24 7 -39 26 -54 40 -31 66 -26 129 25 99 81
247 174 370 235 533 259 1139 263 1673 8 403 -191 720 -509 912 -912 58 -121
124 -308 136 -385 l6 -41 -38 -7 c-48 -8 -72 -20 -105 -51 l-26 -24 -374 3
c-360 4 -376 5 -439 27 -134 48 -212 96 -328 205 -182 170 -346 238 -572 238
-226 0 -390 -68 -572 -238 -116 -109 -194 -157 -328 -205 -63 -22 -79 -23
-439 -27 l-374 -3 -26 24 c-33 31 -57 43 -105 51 l-38 7 6 41 c13 81 79 266
141 393 66 137 148 267 234 374 28 35 51 74 51 86 0 38 -37 75 -75 75 -28 0
-41 -9 -80 -52 -60 -68 -180 -249 -238 -358 -89 -169 -187 -452 -187 -543 0
-73 55 -149 116 -162 13 -3 35 -7 49 -10 l25 -5 0 -240 0 -240 -25 -5 c-14 -3
-36 -7 -49 -10 -61 -13 -116 -89 -116 -162 0 -106 114 -417 220 -600 105 -183
186 -289 335 -439 208 -210 403 -344 654 -452 142 -61 343 -122 403 -122 72 0
151 56 163 116 3 13 7 35 10 49 l5 25 240 0 240 0 5 -25 c3 -14 7 -36 10 -49
12 -60 91 -116 162 -116 93 0 392 105 562 197 112 61 275 171 339 228 43 39
52 53 52 80 0 38 -37 75 -75 75 -12 0 -51 -23 -86 -52 -106 -85 -251 -176
-381 -237 -122 -59 -309 -125 -386 -137 l-41 -6 -7 38 c-8 48 -26 83 -53 108
-21 19 -21 26 -21 366 0 378 5 420 64 553 77 175 258 356 434 434 132 58 175
63 552 63 340 0 347 0 366 -21 25 -27 60 -45 108 -53 l38 -7 -6 -41 c-13 -81
-79 -266 -141 -393 -66 -138 -148 -268 -233 -374 -29 -35 -52 -74 -52 -86 0
-38 37 -75 75 -75 27 0 41 9 80 52 57 64 167 227 228 339 92 170 197 469 197
562 0 71 -56 150 -116 162 -13 3 -35 7 -49 10 l-25 5 0 240 0 240 25 5 c14 3
36 7 49 10 34 7 81 48 100 89 24 50 20 101 -18 233 -66 226 -173 444 -322 654
-74 104 -311 345 -423 429 -263 197 -580 333 -911 389 -144 25 -407 35 -543
21z m289 -1431 c150 -21 258 -77 394 -203 95 -89 145 -125 248 -176 159 -79
182 -83 592 -89 l365 -6 0 -165 0 -165 -365 -6 c-413 -6 -417 -7 -585 -89
-119 -58 -205 -121 -300 -221 -84 -89 -134 -162 -185 -272 -71 -153 -73 -162
-79 -567 l-6 -365 -165 0 -165 0 -6 365 c-6 405 -8 414 -79 567 -51 110 -101
183 -185 272 -95 100 -181 163 -300 221 -168 82 -172 83 -585 89 l-365 6 0
165 0 165 365 6 c410 6 433 10 592 89 103 51 153 87 248 176 131 122 246 183
382 203 89 12 97 12 184 0z m-1035 -978 c144 -37 254 -99 370 -209 118 -111
201 -250 240 -401 17 -66 19 -113 19 -421 0 -340 0 -347 -21 -366 -27 -24 -45
-60 -53 -106 -8 -46 -14 -47 -132 -13 -131 38 -216 71 -337 133 -489 247 -842
673 -992 1196 -34 118 -33 124 13 132 46 8 82 26 106 53 19 21 26 21 366 21
308 0 355 -2 421 -19z"/>
<path d="M2485 3029 c-84 -12 -195 -69 -260 -134 -229 -229 -164 -617 127
-759 340 -166 730 116 677 489 -5 36 -15 81 -23 100 -25 58 -85 73 -126 30
-24 -26 -24 -34 -1 -145 43 -206 -162 -409 -371 -370 -219 42 -334 267 -238
466 59 120 213 200 337 173 114 -23 122 -23 148 1 29 27 32 65 10 98 -29 40
-172 66 -280 51z"/>
</g>
</svg>
